<svg width="48" height="48" viewBox="0 0 48 48" fill="none" xmlns="http://www.w3.org/2000/svg">
<path d="M17.7299 45H36.2701L39 34H15L17.7299 45Z" fill="#733E0A"/>
<path d="M17.4469 48C16.6654 48 15.9565 47.7659 15.32 47.2978C14.6839 46.8296 14.2598 46.2237 14.0476 45.48L11 34H43L39.9524 45.48C39.7402 46.2237 39.3161 46.8296 38.68 47.2978C38.0435 47.7659 37.3346 48 36.5531 48H17.4469Z" fill="#733E0A"/>
<path d="M10 31H45V25H10V31Z" fill="#733E0A"/>
<path d="M27.0583 17.0364C27.0583 13.8727 28.5167 10.9545 31.4333 8.28182C34.35 5.60909 37.5194 4.18182 40.9417 4C40.825 6.94545 39.5222 9.68182 37.0333 12.2091C34.5444 14.7364 31.7833 16.2727 28.75 16.8182V22H48V30.7273C48 31.6273 47.6574 32.3976 46.9722 33.0384C46.2866 33.6795 45.4625 34 44.5 34H9.5C8.5375 34 7.71364 33.6795 7.02842 33.0384C6.34281 32.3976 6 31.6273 6 30.7273V22H25.25V16.8182C22.2167 16.2727 19.4653 14.7364 16.9958 12.2091C14.5264 9.68182 13.2139 6.94545 13.0583 4C16.4806 4.18182 19.6694 5.6 22.625 8.25455C25.5806 10.9091 27.0583 13.8364 27.0583 17.0364Z" fill="#00BC7D"/>
</svg>
